<svg xmlns="http://www.w3.org/2000/svg" viewBox="0 0 131.1 60"><defs><style>.cls-1,.cls-3{fill:#b7cb33;}.cls-2{fill:#37474f;}.cls-3{fill-rule:evenodd;}</style></defs><g id="fp-software"><g id="software"><path class="cls-1" d="M2.5,30v5.6h8.1v2H2.5v6.5H.2V28H11.6v2Z"/><path class="cls-1" d="M20.8,31.8v2.1h-.5c-2.4,0-3.8,1.5-3.8,4.1v6.1H14.3V31.9h2.1v2C17.2,32.5,18.7,31.8,20.8,31.8Z"/><path class="cls-1" d="M34.4,38.7H24.5a4.2,4.2,0,0,0,4.4,3.6,4.54,4.54,0,0,0,3.5-1.5l1.2,1.4a6.11,6.11,0,0,1-4.8,2c-3.9,0-6.6-2.6-6.6-6.2a6,6,0,0,1,6.1-6.2c3.5,0,6,2.5,6,6.3C34.5,38.2,34.4,38.5,34.4,38.7Zm-9.9-1.6h7.8a3.92,3.92,0,0,0-7.8,0Z"/><path class="cls-1" d="M36,42.8l.9-1.8a8.1,8.1,0,0,0,4.3,1.3c2,0,2.9-.6,2.9-1.7,0-2.7-7.7-.4-7.7-5.2,0-2.2,2-3.7,5.1-3.7a8.43,8.43,0,0,1,4.4,1.1L45,34.6a6.43,6.43,0,0,0-3.5-1c-1.9,0-2.9.7-2.9,1.7,0,2.9,7.7.5,7.7,5.3,0,2.2-2,3.6-5.3,3.6A8.74,8.74,0,0,1,36,42.8Z"/><path class="cls-1" d="M60.6,37.1v7H58.4V37.3c0-2.4-1.2-3.6-3.3-3.6-2.3,0-3.9,1.4-3.9,4.1v6.3H49V27h2.2v6.6a5.11,5.11,0,0,1,4.3-1.8C58.5,31.8,60.6,33.5,60.6,37.1Z"/><path class="cls-2" d="M78.1,33.6c0,3.5-2.5,5.6-6.7,5.6h-4v4.9H65.1V28h6.3C75.5,28,78.1,30.1,78.1,33.6Zm-2.3,0c0-2.3-1.5-3.6-4.5-3.6H67.4v7.2h3.9C74.2,37.2,75.8,35.9,75.8,33.6Z"/><path class="cls-2" d="M80,38a6.1,6.1,0,0,1,6.4-6.2,6.2,6.2,0,1,1,0,12.4A6.15,6.15,0,0,1,80,38Zm10.4,0a4.1,4.1,0,1,0-8.2,0,4.1,4.1,0,1,0,8.2,0Z"/><path class="cls-2" d="M102.3,31.8v2.1h-.5c-2.4,0-3.8,1.5-3.8,4.1v6.1H95.8V31.9h2.1v2C98.6,32.5,100.1,31.8,102.3,31.8Z"/><path class="cls-2" d="M112.4,43.4a4.19,4.19,0,0,1-2.7.9c-2.5,0-3.9-1.4-3.9-3.8V33.8h-2.1V32h2.1V29.3H108V32h3.5v1.8H108v6.6a1.77,1.77,0,0,0,1.9,2,2.52,2.52,0,0,0,1.7-.6Z"/><path class="cls-2" d="M124.7,36.7v7.4h-2.1V42.5c-.7,1.1-2.1,1.7-4,1.7-2.8,0-4.5-1.5-4.5-3.6S115.4,37,119,37h3.5v-.4c0-1.9-1.1-2.9-3.3-2.9a6.31,6.31,0,0,0-3.9,1.3l-.9-1.7a8.29,8.29,0,0,1,5-1.6C122.8,31.8,124.7,33.4,124.7,36.7Zm-2.2,3.7V38.7h-3.4c-2.2,0-2.8.9-2.8,1.9,0,1.2,1,2,2.7,2A3.79,3.79,0,0,0,122.5,40.4Z"/><path class="cls-2" d="M128.8,27H131V44.1h-2.2Z"/><path class="cls-2" d="M84.2,57.1l.4-.8a4,4,0,0,0,2.5.9c1.3,0,1.8-.5,1.8-1.1,0-1.8-4.5-.7-4.5-3.4,0-1.1.9-2.1,2.8-2.1a3.79,3.79,0,0,1,2.4.7l-.4.8a3.86,3.86,0,0,0-2-.6c-1.3,0-1.8.5-1.8,1.2,0,1.8,4.5.7,4.5,3.4C89.9,57,89,58,87,58A4.45,4.45,0,0,1,84.2,57.1Z"/><path class="cls-2" d="M90.8,55.1A2.9,2.9,0,1,1,93.7,58,2.78,2.78,0,0,1,90.8,55.1Zm4.8,0a1.9,1.9,0,1,0-1.9,2A1.87,1.87,0,0,0,95.6,55.1Z"/><path class="cls-2" d="M99.2,51.8v.5h1.6v.8H99.2v4.8h-1V53.1h-1v-.8h1v-.5a1.71,1.71,0,0,1,1.9-1.8,1.8,1.8,0,0,1,1.1.3l-.3.8a1.14,1.14,0,0,0-.8-.3C99.5,50.8,99.2,51.2,99.2,51.8Z"/><path class="cls-2" d="M104.9,57.6a1.75,1.75,0,0,1-1.2.4,1.63,1.63,0,0,1-1.8-1.8V53.1h-1v-.8h1V51.1h1v1.2h1.6v.8h-1.6v3a.8.8,0,0,0,.9.9,1.14,1.14,0,0,0,.8-.3Z"/><path class="cls-2" d="M114.5,52.3l-2.1,5.6h-1l-1.6-4.3-1.6,4.3h-1l-2.1-5.6h1l1.6,4.5,1.7-4.5h.9l1.7,4.5,1.7-4.5Z"/><path class="cls-2" d="M119.9,54.5v3.4h-1v-.7a2.07,2.07,0,0,1-1.8.8c-1.3,0-2.1-.7-2.1-1.7s.6-1.6,2.3-1.6h1.6v-.2c0-.9-.5-1.4-1.5-1.4a2.79,2.79,0,0,0-1.8.6l-.4-.8a3.51,3.51,0,0,1,2.3-.7A2.13,2.13,0,0,1,119.9,54.5Zm-1.1,1.7v-.8h-1.6c-1,0-1.3.4-1.3.9s.5.9,1.2.9A1.64,1.64,0,0,0,118.8,56.2Z"/><path class="cls-2" d="M124.8,52.2v1h-.2a1.71,1.71,0,0,0-1.8,1.9v2.8h-1V52.3h1v.9A2.1,2.1,0,0,1,124.8,52.2Z"/><path class="cls-2" d="M131,55.4h-4.6a1.82,1.82,0,0,0,2,1.6,1.86,1.86,0,0,0,1.6-.7l.6.7a3,3,0,0,1-5.2-2,2.8,2.8,0,1,1,5.6,0Zm-4.5-.7h3.6a1.76,1.76,0,0,0-1.8-1.6A1.69,1.69,0,0,0,126.5,54.7Z"/><path class="cls-3" d="M45.5,21.6a3.18,3.18,0,0,1,.4-1.1c7.7-.1,11.4,1.9,18.1,1.2s9.5-7.1,9.5-7.1a13.54,13.54,0,0,1-.1-7.9c1.3-4,5.3-6.7,5.3-6.7a23.48,23.48,0,0,1,.1,8.6c-.8,3.8-4.7,6.5-4.7,6.5a11.87,11.87,0,0,1-10,7.5C56.5,23.1,49.6,21.3,45.5,21.6ZM69.9,18s1.6-4-.4-7.5a17.33,17.33,0,0,0-6.2-6.6c.5,2.6-.2,7.3,1.3,9.8S69.9,18,69.9,18Zm7.4,5.7c4.1.1,5-1.8,8.2-3.5-2.6-.9-4.4-2.9-8-2.5s-4.7,2.1-7.8,3.7C72.7,22.7,73.1,23.6,77.3,23.7Z"/></g></g></svg>