<?xml version="1.0" encoding="utf-8"?>
<!-- Generator: Adobe Illustrator 27.4.1, SVG Export Plug-In . SVG Version: 6.00 Build 0)  -->
<svg version="1.1" id="Layer_1" xmlns="http://www.w3.org/2000/svg" xmlns:xlink="http://www.w3.org/1999/xlink" x="0px" y="0px"
	 viewBox="0 0 16 16" style="enable-background:new 0 0 16 16;" xml:space="preserve">
<style type="text/css">
	.st0{fill:#B7CB33;}
	.st1{fill:#FFFFFF;}
</style>
<circle class="st0" cx="8" cy="8" r="8"/>
<g>
	<path class="st1" d="M8.4,8.7c0,0,1.9-1.3,2.3-3.2c0.2-1.4,0.2-2.8,0-4.3c0,0-2,1.3-2.6,3.3c-0.4,1.3-0.4,2.6,0,3.9
		c0,0-1.4,3.2-4.7,3.5c-0.8,0.1-1.6,0.1-2.3,0c0.1,0.1,0.2,0.3,0.3,0.4c0.7,0,1.4,0,2.1,0C5.6,12.3,7.6,10.8,8.4,8.7z"/>
	<path class="st1" d="M6.3,10.2c0,0,0.8-2-0.2-3.7C5.4,5.1,4.3,4,3,3.2c0.2,1.3-0.1,3.6,0.6,4.8C4.4,9.3,6.3,10.2,6.3,10.2z"/>
	<path class="st1" d="M10,10c-1.8,0.2-2.3,1-3.9,1.8c1.5,0.6,1.7,1.1,3.8,1.1c2,0,2.5-0.9,4.1-1.7C12.7,10.8,11.8,9.8,10,10z"/>
</g>
</svg>
