<?xml version="1.0" encoding="UTF-8"?>
<svg id="a" data-name="Layer 1" xmlns="http://www.w3.org/2000/svg" width="24" height="24" viewBox="0 0 24 24">
  <defs>
    <style>
      .b {
        fill: #fff;
      }
    </style>
  </defs>
  <path class="b" d="m19,10h2c.55,0,1,.45,1,1s-.45,1-1,1h-2v2c0,.55-.45,1-1,1s-1-.45-1-1v-2h-2c-.55,0-1-.45-1-1s.45-1,1-1h2v-2c0-.55.45-1,1-1s1,.45,1,1v2Zm-10,2c-2.76,0-5-2.24-5-5s2.24-5,5-5,5,2.24,5,5-2.24,5-5,5Zm0-2c1.66,0,3-1.34,3-3s-1.34-3-3-3-3,1.34-3,3,1.34,3,3,3Zm8,11c0,.55-.45,1-1,1s-1-.45-1-1v-2c0-1.66-1.34-3-3-3h-5c-1.66,0-3,1.34-3,3v2c0,.55-.45,1-1,1s-1-.45-1-1v-2c0-2.76,2.24-5,5-5h5c2.76,0,5,2.24,5,5v2Z"/>
</svg>