<?xml version="1.0" encoding="UTF-8"?>
<svg id="a" data-name="Layer 1" xmlns="http://www.w3.org/2000/svg" width="24" height="24" viewBox="0 0 24 24">
  <defs>
    <style>
      .b {
        fill: none;
      }

      .c {
        fill: #263238;
      }
    </style>
  </defs>
  <g>
    <path class="c" d="m19,13c-.55,0-1,.45-1,1v5H5V7h5c.55,0,1-.45,1-1s-.45-1-1-1h-5c-1.1,0-2,.9-2,2v12c0,1.1.9,2,2,2h13c1.1,0,2-.9,2-2v-5c0-.55-.45-1-1-1Z"/>
    <path class="c" d="m21.7,6.3l-4-4c-.39-.38-1.01-.38-1.4,0L7.3,11.3c-.19.18-.3.44-.3.7v4c0,.55.45,1,1,1h4c.26,0,.52-.11.7-.3l9-9c.38-.39.38-1.01,0-1.4Zm-10.11,8.7h-2.59v-2.59l8-8,2.59,2.59-8,8Z"/>
  </g>
  <rect class="b" width="24" height="24"/>
</svg>