<?xml version="1.0" encoding="UTF-8"?>
<svg id="a" data-name="Layer 1" xmlns="http://www.w3.org/2000/svg" width="24" height="24" viewBox="0 0 24 24">
  <defs>
    <style>
      .b {
        fill: none;
      }

      .c {
        fill: #263238;
      }
    </style>
  </defs>
  <path class="c" d="m8,6v-2c0-1.1.9-2,2-2h4c1.1,0,2,.9,2,2v2h5c.55,0,1,.45,1,1s-.45,1-1,1h-1v12c0,1.1-.9,2-2,2H6c-1.1,0-2-.9-2-2v-12h-1c-.55,0-1-.45-1-1s.45-1,1-1h5Zm-2,2v12h12v-12H6Zm8-2v-2h-4v2h4Zm-4,4c.55,0,1,.45,1,1v6c0,.55-.45,1-1,1s-1-.45-1-1v-6c0-.55.45-1,1-1Zm4,0c.55,0,1,.45,1,1v6c0,.55-.45,1-1,1s-1-.45-1-1v-6c0-.55.45-1,1-1Z"/>
  <rect class="b" width="24" height="24"/>
</svg>